<svg width="398" height="303" viewBox="0 0 398 303" fill="none" xmlns="http://www.w3.org/2000/svg">
<g opacity="0.5">
<g style="mix-blend-mode:color-dodge">
<rect width="6.0638" height="58.2125" transform="matrix(0.823833 0.566833 -0.567178 0.823595 61.9678 72.6202)" fill="#1B1D1F"/>
<ellipse cx="3.0319" cy="29.1062" rx="3.0319" ry="29.1062" transform="matrix(0.823833 0.566833 -0.567178 0.823595 61.9678 72.6202)" fill="url(#paint0_radial_1138_1542)"/>
</g>
<g style="mix-blend-mode:color-dodge">
<rect width="6.0638" height="58.2125" transform="matrix(0.567178 -0.823595 0.823833 0.566833 22.2588 84.3092)" fill="#1B1D1F"/>
<ellipse cx="3.0319" cy="29.1062" rx="3.0319" ry="29.1062" transform="matrix(0.567178 -0.823595 0.823833 0.566833 22.2588 84.3092)" fill="url(#paint1_radial_1138_1542)"/>
</g>
<g style="mix-blend-mode:color-dodge">
<rect width="6.0638" height="58.2125" transform="matrix(0.823833 0.566833 -0.567178 0.823595 135.482 69.7618)" fill="#1B1D1F"/>
<ellipse cx="3.0319" cy="29.1062" rx="3.0319" ry="29.1062" transform="matrix(0.823833 0.566833 -0.567178 0.823595 135.482 69.7618)" fill="url(#paint2_radial_1138_1542)"/>
</g>
<g style="mix-blend-mode:color-dodge">
<rect width="6.0638" height="58.2125" transform="matrix(0.567178 -0.823595 0.823833 0.566833 95.7734 81.4508)" fill="#1B1D1F"/>
<ellipse cx="3.0319" cy="29.1062" rx="3.0319" ry="29.1062" transform="matrix(0.567178 -0.823595 0.823833 0.566833 95.7734 81.4508)" fill="url(#paint3_radial_1138_1542)"/>
</g>
<g style="mix-blend-mode:color-dodge">
<rect width="6.0638" height="58.2125" transform="matrix(0.823833 0.566833 -0.567178 0.823595 174.708 98.2999)" fill="#1B1D1F"/>
<ellipse cx="3.0319" cy="29.1062" rx="3.0319" ry="29.1062" transform="matrix(0.823833 0.566833 -0.567178 0.823595 174.708 98.2999)" fill="url(#paint4_radial_1138_1542)"/>
</g>
<g style="mix-blend-mode:color-dodge">
<rect width="6.0638" height="58.2125" transform="matrix(0.567178 -0.823595 0.823833 0.566833 134.999 109.989)" fill="#1B1D1F"/>
<ellipse cx="3.0319" cy="29.1062" rx="3.0319" ry="29.1062" transform="matrix(0.567178 -0.823595 0.823833 0.566833 134.999 109.989)" fill="url(#paint5_radial_1138_1542)"/>
</g>
<g style="mix-blend-mode:color-dodge">
<rect width="4.32011" height="41.473" transform="matrix(0.823833 0.566833 -0.567178 0.823595 223.066 135.923)" fill="#1B1D1F"/>
<ellipse cx="2.16005" cy="20.7365" rx="2.16005" ry="20.7365" transform="matrix(0.823833 0.566833 -0.567178 0.823595 223.066 135.923)" fill="url(#paint6_radial_1138_1542)"/>
</g>
<g style="mix-blend-mode:color-dodge">
<rect width="4.32011" height="41.473" transform="matrix(0.567178 -0.823595 0.823833 0.566833 194.776 144.251)" fill="#1B1D1F"/>
<ellipse cx="2.16005" cy="20.7365" rx="2.16005" ry="20.7365" transform="matrix(0.567178 -0.823595 0.823833 0.566833 194.776 144.251)" fill="url(#paint7_radial_1138_1542)"/>
</g>
<g style="mix-blend-mode:color-dodge">
<rect width="5.71583" height="54.8719" transform="matrix(0.823833 0.566833 -0.567178 0.823595 230.293 179.619)" fill="#1B1D1F"/>
<ellipse cx="2.85791" cy="27.436" rx="2.85791" ry="27.436" transform="matrix(0.823833 0.566833 -0.567178 0.823595 230.293 179.619)" fill="url(#paint8_radial_1138_1542)"/>
</g>
<g style="mix-blend-mode:color-dodge">
<rect width="5.71583" height="54.8719" transform="matrix(0.567178 -0.823595 0.823833 0.566833 192.862 190.638)" fill="#1B1D1F"/>
<ellipse cx="2.85791" cy="27.436" rx="2.85791" ry="27.436" transform="matrix(0.567178 -0.823595 0.823833 0.566833 192.862 190.638)" fill="url(#paint9_radial_1138_1542)"/>
</g>
<g style="mix-blend-mode:color-dodge">
<rect width="8.37437" height="80.3939" transform="matrix(0.823833 0.566833 -0.567178 0.823595 345.467 127.589)" fill="#1B1D1F"/>
<ellipse cx="4.18718" cy="40.197" rx="4.18718" ry="40.197" transform="matrix(0.823833 0.566833 -0.567178 0.823595 345.467 127.589)" fill="url(#paint10_radial_1138_1542)"/>
</g>
<g style="mix-blend-mode:color-dodge">
<rect width="8.37436" height="80.3939" transform="matrix(0.567178 -0.823595 0.823833 0.566833 290.627 143.732)" fill="#1B1D1F"/>
<ellipse cx="4.18718" cy="40.197" rx="4.18718" ry="40.197" transform="matrix(0.567178 -0.823595 0.823833 0.566833 290.627 143.732)" fill="url(#paint11_radial_1138_1542)"/>
</g>
<g style="mix-blend-mode:color-dodge">
<rect width="5.51644" height="52.9578" transform="matrix(0.823833 0.566833 -0.567178 0.823595 317.088 193.256)" fill="#1B1D1F"/>
<ellipse cx="2.75822" cy="26.4789" rx="2.75822" ry="26.4789" transform="matrix(0.823833 0.566833 -0.567178 0.823595 317.088 193.256)" fill="url(#paint12_radial_1138_1542)"/>
</g>
<g style="mix-blend-mode:color-dodge">
<rect width="5.51644" height="52.9578" transform="matrix(0.567178 -0.823595 0.823833 0.566833 280.963 203.89)" fill="#1B1D1F"/>
<ellipse cx="2.75822" cy="26.4789" rx="2.75822" ry="26.4789" transform="matrix(0.567178 -0.823595 0.823833 0.566833 280.963 203.89)" fill="url(#paint13_radial_1138_1542)"/>
</g>
</g>
<defs>
<radialGradient id="paint0_radial_1138_1542" cx="0" cy="0" r="1" gradientUnits="userSpaceOnUse" gradientTransform="translate(3.0319 29.1062) rotate(90) scale(29.1062 3.0319)">
<stop offset="0.0364583" stop-color="#FFF1E4"/>
<stop offset="1" stop-color="#3A71FF" stop-opacity="0"/>
</radialGradient>
<radialGradient id="paint1_radial_1138_1542" cx="0" cy="0" r="1" gradientUnits="userSpaceOnUse" gradientTransform="translate(3.0319 29.1062) rotate(90) scale(29.1062 3.0319)">
<stop offset="0.0364583" stop-color="#FFF1E4"/>
<stop offset="1" stop-color="#3A71FF" stop-opacity="0"/>
</radialGradient>
<radialGradient id="paint2_radial_1138_1542" cx="0" cy="0" r="1" gradientUnits="userSpaceOnUse" gradientTransform="translate(3.0319 29.1062) rotate(90) scale(29.1062 3.0319)">
<stop offset="0.0364583" stop-color="#FFF1E4"/>
<stop offset="1" stop-color="#3A71FF" stop-opacity="0"/>
</radialGradient>
<radialGradient id="paint3_radial_1138_1542" cx="0" cy="0" r="1" gradientUnits="userSpaceOnUse" gradientTransform="translate(3.0319 29.1062) rotate(90) scale(29.1062 3.0319)">
<stop offset="0.0364583" stop-color="#FFF1E4"/>
<stop offset="1" stop-color="#3A71FF" stop-opacity="0"/>
</radialGradient>
<radialGradient id="paint4_radial_1138_1542" cx="0" cy="0" r="1" gradientUnits="userSpaceOnUse" gradientTransform="translate(3.0319 29.1062) rotate(90) scale(29.1062 3.0319)">
<stop offset="0.0364583" stop-color="#FFF1E4"/>
<stop offset="1" stop-color="#3A71FF" stop-opacity="0"/>
</radialGradient>
<radialGradient id="paint5_radial_1138_1542" cx="0" cy="0" r="1" gradientUnits="userSpaceOnUse" gradientTransform="translate(3.0319 29.1062) rotate(90) scale(29.1062 3.0319)">
<stop offset="0.0364583" stop-color="#FFF1E4"/>
<stop offset="1" stop-color="#3A71FF" stop-opacity="0"/>
</radialGradient>
<radialGradient id="paint6_radial_1138_1542" cx="0" cy="0" r="1" gradientUnits="userSpaceOnUse" gradientTransform="translate(2.16005 20.7365) rotate(90) scale(20.7365 2.16005)">
<stop offset="0.0364583" stop-color="#FFF1E4"/>
<stop offset="1" stop-color="#3A71FF" stop-opacity="0"/>
</radialGradient>
<radialGradient id="paint7_radial_1138_1542" cx="0" cy="0" r="1" gradientUnits="userSpaceOnUse" gradientTransform="translate(2.16005 20.7365) rotate(90) scale(20.7365 2.16005)">
<stop offset="0.0364583" stop-color="#FFF1E4"/>
<stop offset="1" stop-color="#3A71FF" stop-opacity="0"/>
</radialGradient>
<radialGradient id="paint8_radial_1138_1542" cx="0" cy="0" r="1" gradientUnits="userSpaceOnUse" gradientTransform="translate(2.85791 27.436) rotate(90) scale(27.436 2.85791)">
<stop offset="0.0364583" stop-color="#FFF1E4"/>
<stop offset="1" stop-color="#3A71FF" stop-opacity="0"/>
</radialGradient>
<radialGradient id="paint9_radial_1138_1542" cx="0" cy="0" r="1" gradientUnits="userSpaceOnUse" gradientTransform="translate(2.85791 27.436) rotate(90) scale(27.436 2.85791)">
<stop offset="0.0364583" stop-color="#FFF1E4"/>
<stop offset="1" stop-color="#3A71FF" stop-opacity="0"/>
</radialGradient>
<radialGradient id="paint10_radial_1138_1542" cx="0" cy="0" r="1" gradientUnits="userSpaceOnUse" gradientTransform="translate(4.18718 40.197) rotate(90) scale(40.197 4.18718)">
<stop offset="0.0364583" stop-color="#FFF1E4"/>
<stop offset="1" stop-color="#3A71FF" stop-opacity="0"/>
</radialGradient>
<radialGradient id="paint11_radial_1138_1542" cx="0" cy="0" r="1" gradientUnits="userSpaceOnUse" gradientTransform="translate(4.18718 40.197) rotate(90) scale(40.197 4.18718)">
<stop offset="0.0364583" stop-color="#FFF1E4"/>
<stop offset="1" stop-color="#3A71FF" stop-opacity="0"/>
</radialGradient>
<radialGradient id="paint12_radial_1138_1542" cx="0" cy="0" r="1" gradientUnits="userSpaceOnUse" gradientTransform="translate(2.75822 26.4789) rotate(90) scale(26.4789 2.75822)">
<stop offset="0.0364583" stop-color="#FFF1E4"/>
<stop offset="1" stop-color="#3A71FF" stop-opacity="0"/>
</radialGradient>
<radialGradient id="paint13_radial_1138_1542" cx="0" cy="0" r="1" gradientUnits="userSpaceOnUse" gradientTransform="translate(2.75822 26.4789) rotate(90) scale(26.4789 2.75822)">
<stop offset="0.0364583" stop-color="#FFF1E4"/>
<stop offset="1" stop-color="#3A71FF" stop-opacity="0"/>
</radialGradient>
</defs>
</svg>
